<svg xmlns="http://www.w3.org/2000/svg" xmlns:xlink="http://www.w3.org/1999/xlink"><defs><clipPath id="a"><path fill="#fff" transform="translate(.5)" d="M0 0h30v32H0z"/></clipPath></defs><symbol id="copyright-logo"><g fill="currentColor"><path d="M13.643.016 13.5 0 0 1.407v24.606L13.5 34 27 26.013V1.407L13.643.016Zm11.591 25L13.5 31.956 1.766 25.015V14.93l11.685 6.916.02 1.253-8.017-4.743-.011 1.225 8.046 4.809.02 1.286-8.045-4.758-.01 1.226L13.5 26.95l8.124-4.833V16.91l3.62-2.15-.01 10.256Zm0-11.564-3.22 1.88-1.482.875-7.065-4.187-.011 1.225 6.04 3.573-.053.031-.13.076-.86.492-4.986-2.948-.011 1.225 3.936 2.328-.933.61-.021.012-2.971-1.742-.011 1.225 1.947 1.135-1.988 1.186-11.618-6.872 11.638-6.958 11.8 6.834Zm0-1.225L13.44 5.31 1.766 12.22V2.99L13.5 1.764 25.234 2.99v9.237Z"/></g></symbol><symbol id="icon-gift"><g fill="none"><path d="M64.016 34.713H14.03c-1.754 0-3.182-1.418-3.182-3.16v-9.469c0-1.742 1.428-3.16 3.182-3.16h49.984c1.754 0 3.18 1.418 3.18 3.16v9.469c0 1.742-1.426 3.16-3.18 3.16ZM14.03 21.346a.751.751 0 0 0-.744.738v9.469c0 .407.334.738.744.738h49.984c.41 0 .743-.331.743-.738v-9.469a.75.75 0 0 0-.743-.738H14.03Z" fill="#fff"/><path d="M57.045 67.149H20.999c-3.377 0-6.125-2.73-6.125-6.086V33.502c0-.669.546-1.212 1.219-1.212s1.219.543 1.219 1.212v27.56c0 2.021 1.654 3.665 3.687 3.665h36.046c2.032 0 3.686-1.644 3.686-3.664V33.502c0-.669.546-1.212 1.219-1.212.672 0 1.218.543 1.218 1.212v27.56c0 3.357-2.747 6.087-6.123 6.087Z" fill="#fff"/><path d="M39.023 67.149a1.215 1.215 0 0 1-1.22-1.211V33.502c0-.669.547-1.212 1.22-1.212.672 0 1.218.543 1.218 1.212v32.435c0 .67-.545 1.212-1.218 1.212ZM23.811 21.341c-3.814-2.054-5.238-6.808-3.173-10.6 2.064-3.789 6.848-5.204 10.665-3.154 5.814 3.13 8.954 11.86 9.084 12.23l-2.3.804c-.029-.083-2.961-8.222-7.944-10.904-2.635-1.415-5.937-.438-7.36 2.177-1.426 2.618-.444 5.9 2.19 7.318l-1.162 2.13Z" fill="#fff"/><path d="m54.231 21.341-1.16-2.13a5.376 5.376 0 0 0 2.622-3.207 5.327 5.327 0 0 0-.431-4.109 5.382 5.382 0 0 0-3.226-2.604 5.426 5.426 0 0 0-4.134.426c-4.982 2.682-7.915 10.82-7.944 10.903l-2.3-.803c.131-.37 3.27-9.101 9.084-12.23a7.859 7.859 0 0 1 5.99-.617 7.8 7.8 0 0 1 4.674 3.771 7.72 7.72 0 0 1 .623 5.953 7.788 7.788 0 0 1-3.798 4.647ZM61.95 50.931H16.093a1.215 1.215 0 0 1-1.219-1.21c0-.67.546-1.212 1.219-1.212H61.95c.672 0 1.218.543 1.218 1.211 0 .669-.545 1.211-1.218 1.211Z" fill="#fff"/></g></symbol><symbol id="rules-food"><g fill="none"><path fill-rule="evenodd" clip-rule="evenodd" d="M19.117.076a1 1 0 0 1 1.09.217c.909.908 2.097 2.878 3.059 5.918C24.237 9.28 25 13.508 25 19a1 1 0 0 1-1 1h-3.5v9a1 1 0 1 1-2 0V1a1 1 0 0 1 .617-.924ZM20.5 18h2.491c-.086-4.816-.786-8.512-1.632-11.186-.278-.88-.57-1.643-.859-2.295V18ZM6.5 0a1 1 0 0 1 1 1v28a1 1 0 1 1-2 0V1a1 1 0 0 1 1-1Z" fill="#fff"/><path fill-rule="evenodd" clip-rule="evenodd" d="M2 0a1 1 0 0 1 1 1v5.5c0 .557.192 1.315.7 1.917.48.566 1.314 1.083 2.8 1.083a1 1 0 1 1 0 2c-2.015 0-3.43-.733-4.326-1.792A5.068 5.068 0 0 1 1 6.5V1a1 1 0 0 1 1-1Z" fill="#fff"/><path fill-rule="evenodd" clip-rule="evenodd" d="M11 0a1 1 0 0 0-1 1v5.5a3.07 3.07 0 0 1-.7 1.917C8.82 8.983 7.984 9.5 6.5 9.5a1 1 0 0 0 0 2c2.014 0 3.43-.733 4.326-1.792A5.068 5.068 0 0 0 12 6.5V1a1 1 0 0 0-1-1Z" fill="#fff"/></g></symbol><symbol id="rules-healthy"><g fill="none"><g clip-path="url(#a)"><path d="M28.344 2.767c-.1-.45-.48-.767-.912-.767h-.005c-4.938.033-16.945.916-21.793 8.38-2.518 3.878-2.735 8.913-.644 14.965.016.047.048.079.07.122-.747 1.973-1.037 3.286-1.044 3.323-.11.54.214 1.072.72 1.188a.88.88 0 0 0 .197.022c.433 0 .822-.321.916-.79.02-.102 2.409-10.373 10.854-16.378.431-.306.547-.927.26-1.387-.288-.46-.87-.585-1.3-.277-4.79 3.405-7.739 8.008-9.473 11.656-1.242-4.578-.916-8.377.986-11.305 3.743-5.764 12.622-7.154 17.982-7.448C24.005 5.872 22.745 9.174 22.745 15c0 3.12-.83 5.522-2.465 7.14-2.62 2.591-6.88 2.834-9.993 2.584-.518-.045-.967.371-1.006.922-.04.55.347 1.03.863 1.072.623.051 1.29.082 1.981.082 3.17 0 6.87-.663 9.43-3.194 2.034-2.011 3.065-4.906 3.065-8.605 0-9.099 3.216-11.096 3.232-11.105.39-.209.594-.677.492-1.129Z" fill="#fff"/></g></g></symbol><symbol id="rules-result"><g fill="none"><path d="M22.291 11.33a1.086 1.086 0 1 1-2.177-.002 1.086 1.086 0 0 1 2.177.002ZM11.418 11.33a1.086 1.086 0 1 1-2.172-.002 1.086 1.086 0 0 1 2.172.002ZM11.418 24.351a1.086 1.086 0 1 1-2.172-.002 1.086 1.086 0 0 1 2.172.002ZM16.855 26.521a1.086 1.086 0 1 1-2.177-.002 1.086 1.086 0 0 1 2.177.003ZM8.157 17.775c0 .6-.487 1.085-1.088 1.085a1.086 1.086 0 1 1 1.088-1.085ZM25.553 17.775a1.086 1.086 0 1 1-2.177-.002 1.086 1.086 0 0 1 2.177.002ZM22.291 24.351a1.086 1.086 0 1 1-2.177-.002 1.086 1.086 0 0 1 2.177.002Z" fill="#fff"/><path fill-rule="evenodd" clip-rule="evenodd" d="M20.922 29.058a1.058 1.058 0 0 1 1.216.196l1.826 1.875a.682.682 0 0 0 .977-.951l-1.357-1.393c-.426-.438-.361-1.15.098-1.552C26.324 24.92 28 21.47 28 17.614 28 10.648 22.523 5 15.768 5 9.012 5 3.536 10.648 3.536 17.614c0 3.815 1.641 7.234 4.236 9.547.452.403.513 1.11.09 1.544l-1.434 1.473a.682.682 0 0 0 .977.951l1.879-1.93a1.058 1.058 0 0 1 1.226-.191 11.878 11.878 0 0 0 5.258 1.221c1.841 0 3.587-.42 5.154-1.17Zm-5.154-.23c6.005 0 10.873-5.02 10.873-11.213S21.773 6.402 15.768 6.402c-6.005 0-10.873 5.02-10.873 11.212 0 6.193 4.868 11.213 10.873 11.213Zm-.76-11.53V9.94a.781.781 0 0 1 1.562 0v8.183c0 .443-.359.803-.802.803a.76.76 0 0 1-.76-.76V17.298Z" fill="#fff"/><path fill-rule="evenodd" clip-rule="evenodd" d="M9.284 29.199c.131-.135.293-.226.467-.271.247-.065.519-.039.76.08a11.883 11.883 0 0 0 5.258 1.221 11.886 11.886 0 0 0 5.153-1.17 1.1 1.1 0 0 1 .673-.093c.202.037.393.134.544.288l1.825 1.875a.682.682 0 0 0 .977-.95l-1.357-1.394a1.007 1.007 0 0 1-.284-.662 1.114 1.114 0 0 1 .382-.89 12.48 12.48 0 0 0 1.047-1.032A12.786 12.786 0 0 0 28 17.614C28 10.648 22.523 5 15.768 5 9.012 5 3.536 10.648 3.536 17.614c0 3.275 1.21 6.258 3.193 8.5.327.37.675.72 1.043 1.047a1.126 1.126 0 0 1 .371.927c-.02.225-.112.443-.281.617l-1.434 1.473a.682.682 0 1 0 .976.951l1.88-1.93ZM7.9 25.355a10.856 10.856 0 0 0 4.247 2.836c1.132.412 2.35.636 3.62.636a10.56 10.56 0 0 0 4.55-1.026 10.847 10.847 0 0 0 3.246-2.37 11.36 11.36 0 0 0 3.077-7.817c0-4.775-2.894-8.852-6.973-10.47a10.557 10.557 0 0 0-3.878-.742h-.022c-1.352 0-2.646.254-3.84.719-4.11 1.6-7.033 5.695-7.033 10.493 0 3.002 1.144 5.729 3.006 7.741Zm8.67-15.414a.781.781 0 0 0-1.563 0v8.225c0 .42.34.76.76.76a.803.803 0 0 0 .803-.803V9.94Z" fill="#fff"/><path d="M15 6V2h1.5v4H15Z" fill="#fff"/><path d="M8 2.75A.75.75 0 0 1 8.75 2h14a.75.75 0 0 1 0 1.5h-14A.75.75 0 0 1 8 2.75Z" fill="#fff"/></g></symbol><symbol id="rules-simply"><g fill="none"><path d="M20.776 18.473c-1.706 0-3.088 1.479-3.088 3.301 0 1.824 1.383 3.302 3.088 3.302 1.706 0 3.088-1.478 3.088-3.302 0-1.823-1.383-3.3-3.088-3.3Zm0 5.013c-.884 0-1.6-.766-1.6-1.71 0-.947.716-1.713 1.6-1.713.884 0 1.602.766 1.602 1.712 0 .945-.718 1.711-1.602 1.711ZM11.607-.01c-1.76 0-3.187 1.525-3.187 3.407 0 1.882 1.426 3.407 3.187 3.407 1.76 0 3.187-1.524 3.187-3.407S13.367-.01 11.607-.01Zm0 5.476c-1.07 0-1.936-.926-1.936-2.07 0-1.142.866-2.069 1.935-2.069 1.07 0 1.936.927 1.936 2.07 0 1.143-.866 2.069-1.936 2.069ZM8.227 17.61c-1.294 0-2.341 1.12-2.341 2.503s1.047 2.503 2.34 2.503c1.295 0 2.342-1.12 2.342-2.503 0-1.382-1.047-2.503-2.341-2.503ZM8 19.5c-.459 0 1.158 1.104 1.158.613 0-.49-1.617.387-1.158.387.459 0 1.057-.877 1.057-.388 0 .49-.598-.612-1.057-.612ZM18.5 9.763s3.04-.839 6.178 1.494c.907.76 1.765 1.336 1.152 2.122-.343.34-.637.657-1.716-.524-1.054-.76-2.72-1.898-5.614-1.442-1.128.237-1.961.551-3.556 2.15-1.593 1.598-3.972 2.725-6.497 2.489-2.525-.236-3.849-1.258-5.246-2.542-.294-.42-.294-.865-.123-1.127.171-.262.833-.524 1.201-.132.368.394 2.109 1.966 3.825 2.07 1.716.105 3.433.21 5.737-1.965 2.306-2.174 3.458-2.331 4.66-2.593Z" fill="#fff"/><path d="M28.646 26.816V8.157c0-.578-.374-.65-.524-.655h-.506c-.493 0-.536.557-.538.739V8.3c.002 3.609.01 18.254-.002 18.54a2.681 2.681 0 0 1-.82 1.887c-.809.695-1.618.603-1.618.603s-20.177 0-20.655-.026c-.38-.066-1.042-.21-1.606-1.01-.564-.798-.453-1.847-.453-1.847V8.315c0-.839-.675-.812-.675-.812H.942c-.536 0-.585.588-.588.776v18.537c0 1.337.453 2.398 1.548 3.337 1.094.939 2.375.856 2.375.856s19.723 0 20.581-.002c.859-.003 1.986-.417 2.916-1.556.93-1.138.872-2.635.872-2.635Z" fill="#fff"/><path fill-rule="evenodd" clip-rule="evenodd" d="M26.255 28.728c-.553.476-1.107.583-1.401.603-.136.01-.216 0-.216 0s-17.81 0-20.361-.022h-.11a6.645 6.645 0 0 1-.184-.004 2.327 2.327 0 0 1-1.012-.398c-.2-.143-.403-.34-.594-.611a2.447 2.447 0 0 1-.362-.808l-.004-.015a3.225 3.225 0 0 1-.093-.657c-.01-.223.006-.368.006-.368V8.315a1.442 1.442 0 0 0 0-.036c-.02-.802-.675-.776-.675-.776H.942c-.536 0-.585.588-.588.776v18.537c0 .23.013.453.041.668a3.885 3.885 0 0 0 .66 1.744c.223.323.504.63.847.925a3.615 3.615 0 0 0 1.986.841c.24.025.389.015.389.015s17.183 0 20.17-.002H24.858c.72-.002 1.626-.293 2.449-1.056l.066-.063c.137-.132.271-.277.401-.437.537-.657.744-1.435.824-1.974a4.39 4.39 0 0 0 .048-.576V8.157c0-.578-.374-.65-.524-.655h-.506c-.432 0-.519.427-.535.655l-.003.084v.06l.001 1.651c.002 5.051.007 16.21-.002 16.864v.025l-.002.035a2.922 2.922 0 0 1-.085.594c-.073.289-.21.628-.466.96-.078.1-.167.2-.269.298Zm1.867-1.892.524-.02-.524.02Z" fill="#fff"/></g></symbol><symbol id="program-diet"><g fill="none"><path d="M28.203 0h-.195c-.33.187-.593.474-.75.82a8.028 8.028 0 0 0-.664 1.757.84.84 0 0 1-.761.691 3.77 3.77 0 0 0-2.69 1.948c-.372.661-.69 1.35-.952 2.062-.73 1.897-1.29 3.856-1.98 5.768-.324.872-.339.872-1.316.872-1.168 0-1.085-.18-1.1 1.108 0 .407.123.613.555.593.133 0 .334-.067.385.108.052.175-.123.252-.226.355a4.626 4.626 0 0 1-2.227 1.258c-.977.263-1.975.47-2.926.789-2.443.82-4.7 1.964-6.46 3.902a14.44 14.44 0 0 0-2.437 4.041C2.57 30.526 1.656 35.217.946 39.954a97.064 97.064 0 0 0-.75 6.7C.102 47.759 0 48.877 0 50h17.141a1.126 1.126 0 0 0-.118-.66 2.577 2.577 0 0 0-1.97-1.582c-.36-.083-.401-.191-.18-.475.36-.482.637-1.022.818-1.597.838-2.48 1.162-5.067 1.568-7.63.23-1.956.83-3.85 1.77-5.582a11.126 11.126 0 0 1 2.874-3.283c.427-.325.443-.325.515.227.051.366.061.742.087 1.113a48.166 48.166 0 0 1-.092 7.31 31.866 31.866 0 0 0-.078 5.67A38.826 38.826 0 0 0 23.503 50h6.84a2.79 2.79 0 0 0-2.18-2.289 4.62 4.62 0 0 0-1.934.103c-.309.073-.438 0-.463-.335a29.113 29.113 0 0 1 .514-8.154 91.803 91.803 0 0 0 1.574-9.371 9.163 9.163 0 0 1 1.172-3.609c.612-1.092 1.147-2.226 1.749-3.324a3.031 3.031 0 0 0 .216-2.676c-.139-.366-.273-.737-.442-1.087-.515-1.005-1.029-2-1.502-3.016-.252-.515-.196-.577.365-.593.838 0 .838 0 .854-.845v-.34c0-.356-.134-.552-.515-.516h-.781c-.355 0-.458-.149-.37-.515a3.217 3.217 0 0 1 2.638-2.284 11.291 11.291 0 0 1 3.404.222.513.513 0 0 0 .643-.33c.206-.515.432-1.03.664-1.546a.517.517 0 0 0-.052-.588c-1.646-2.093-3.43-4.046-5.863-5.299a.767.767 0 0 1-.452-.577 10.123 10.123 0 0 0-.653-2.144A1.803 1.803 0 0 0 28.203 0Z" fill="#000"/></g></symbol><symbol id="program-fat"><g fill="none"><path d="M61.55 2.9A7.599 7.599 0 0 1 63.8.6c.5-.35.8-.35 1.1.3.4.95.75 1.95.45 3a1.145 1.145 0 0 0 .2 1.05c.3.4.55.8.8 1.15a3.136 3.136 0 0 1 .45 3.1 2.715 2.715 0 0 0-.1 1.55c.1.495.1 1.005 0 1.5a1.875 1.875 0 0 1-1.35 1.6c-.64.122-1.21.478-1.6 1a.525.525 0 0 1-.45.25c-.6.1-2.1-1.25-2.1-1.85v-.3c.05-1.8-.05-1.95-1.7-2.7a2.194 2.194 0 0 1-.9-.6c-.3-.4-.7-.35-1.15-.2-.45.15-.7.45-.65.95.15 1.21.2 2.431.15 3.65a.94.94 0 0 0 .1.4c1.55 2.25 2.15 4.9 2.9 7.45.6 1.95 1.7 3 3.7 3.15.32.026.638.076.95.15a2.08 2.08 0 0 1 1.7 1.6c.35 1.05.15 1.3-.9 1.3h-3.25a1.62 1.62 0 0 1-1.15-.4 5.855 5.855 0 0 0-1.7-1 3.63 3.63 0 0 1-1.7-1.3 14.304 14.304 0 0 0-2-2.25c-1.4-1.45-2.9-2.85-4.2-4.35a5.69 5.69 0 0 1-1.6-3.8c0-.45-.1-.65-.6-.45a.965.965 0 0 1-.5.15c-1.4 0-2.1.85-2.6 2.1-.45 1.05-1.05 2.05-1.6 3.1A5.194 5.194 0 0 0 44 22c0 1.2.3 1.6 1.4 2 .7.25 1.35.5 1.7 1.2.4.8.3 1-.55 1.05h-3.4a.94.94 0 0 1-.95-.55l-.9-1.5a3.024 3.024 0 0 1-.35-2.7 5.93 5.93 0 0 0 .05-2.65 4.209 4.209 0 0 1 .85-3.5c.3-.35.3-.5-.2-.6a25.028 25.028 0 0 1-5.9-2.05.05.05 0 0 1-.05-.05c-1.6-.6-1.9-.5-2.35 1.15-.4 1.4-.8 2.8-1.1 4.25-.35 1.6.05 3.1.55 4.6.2.6.8.55 1.25.7 1 .3 1.85.7 2.25 1.75.35.8.3.9-.55.9-.85 0-1.7-.05-2.6 0a3.32 3.32 0 0 1-2.1-.7c-2.4-1.6-3.1-4.05-3.3-6.7-.1-1.65-1-2.95-2.05-4.2-.2-.25-.4-.35-.7-.15a22.16 22.16 0 0 1-3.35 1.5 13.355 13.355 0 0 0-6.1 4.4 5.315 5.315 0 0 0-1.1 2.55c-.15.9.1 1.3 1 1.55s1.35.75 1.45 1.7c.05.4-.1.6-.5.6h-4.05a.826.826 0 0 1-.65-.4 4.28 4.28 0 0 1-.95-2.75 25.292 25.292 0 0 1 .45-5.15 3.149 3.149 0 0 1 1.7-2.4c2.95-1.4 4.5-4.05 5.9-6.8.3-.55.05-.65-.45-.6a8.234 8.234 0 0 0-3.85 1.6 35.307 35.307 0 0 0-4.15 3.55 8.335 8.335 0 0 1-5.15 2.45c-3.65.2-5.35-1.85-5.2-5.15a4.845 4.845 0 0 1 1.2-3.05 2.125 2.125 0 0 1 2.25-.75c.75.2.95.6.65 1.35-.15.3-.35.55-.5.85a3.75 3.75 0 0 0-.5 1c-.55 1.5.2 2.55 1.75 2.7 1.65.15 3-.55 4.25-1.55a22.474 22.474 0 0 0 4-4.15 10.394 10.394 0 0 1 7.2-4.05c1.15-.15 2.15-.65 3.25-.95 2.057-.627 4.2-.93 6.35-.9a6.5 6.5 0 0 0 2.9-.55c2.45-1 5-1 7.55-.5 2 .4 4 .9 5.95 1.4a8.29 8.29 0 0 0 3.5-.1 33.895 33.895 0 0 1 6.7-1 9.08 9.08 0 0 1 4.3.85c1 .45 1 .45.75 1.4Z" fill="#000"/></g></symbol><symbol id="social-Telegram"><g fill="currentColor"><path fill-rule="evenodd" clip-rule="evenodd" d="M23.46 3.153c.18.15.265.382.227.611l-2.626 15.757a.657.657 0 0 1-1.012.439l-7.878-5.253a.657.657 0 0 1-.149-.956l2.611-3.263-4.36 2.906a.657.657 0 0 1-.658.041L4.363 10.81a.657.657 0 0 1 .073-1.205l18.383-6.566a.657.657 0 0 1 .642.115Zm-17.134 7.17 3.536 1.768 7.561-5.041a.656.656 0 0 1 .877.956l-4.805 6.006 6.438 4.292L22.208 4.65 6.326 10.323Z"/></g></symbol><symbol id="social-Vkontakte"><g fill="currentColor"><path d="M1 5.339c0-.855.515-1.316 1.545-1.383l3.97.025a.52.52 0 0 1 .533.377c.409 1.257.866 2.343 1.372 3.257.506.913 1.168 1.965 1.985 3.156.071.15.187.226.346.226.125 0 .223-.059.293-.176l.08-.277.027-4.35c0-.302-.075-.503-.226-.604-.151-.1-.431-.176-.84-.226-.32-.05-.48-.235-.48-.553 0-.067.01-.118.027-.151.373-1.09 1.44-1.635 3.198-1.635L14.322 3c.675 0 1.234.16 1.678.478.444.318.666.821.666 1.509v5.708c.125.084.24.126.347.126.266 0 .497-.15.692-.453 1.954-2.582 3.011-4.308 3.17-5.18 0-.017.019-.059.054-.126.125-.251.329-.47.613-.654.284-.184.533-.31.746-.377a.554.554 0 0 1 .24-.05h4.13l.266.025c.355 0 .63.16.826.478.07.1.12.21.146.327.027.117.045.234.054.352.009.117.013.184.013.2v.177c-.124.687-.44 1.42-.946 2.2-.506.78-1.15 1.622-1.931 2.528-.782.905-1.27 1.5-1.466 1.785-.16.201-.24.386-.24.553 0 .135.071.286.213.453l3.89 4.627c.213.269.32.562.32.88 0 .386-.16.705-.48.956-.32.252-.701.394-1.145.428l-.453.025h-4.05a.855.855 0 0 0-.106.012.862.862 0 0 1-.107.013c-.39 0-.755-.16-1.092-.478-.125-.134-.96-1.123-2.505-2.967a1.387 1.387 0 0 0-.373-.327c-.07.268-.164.654-.28 1.157-.115.503-.2.863-.253 1.081l-.08.427c-.177.587-.55.94-1.119 1.057l-.373.025h-2.61c-1.475 0-2.945-.637-4.41-1.911-1.466-1.275-2.784-2.922-3.957-4.942-1.172-2.02-2.264-4.372-3.277-7.054A1.916 1.916 0 0 1 1 5.338Zm16.013 6.513c-.373 0-.71-.096-1.013-.29-.302-.192-.453-.456-.453-.791V4.987c0-.336-.089-.575-.266-.717-.178-.143-.489-.214-.933-.214l-1.518.05c-.764 0-1.341.126-1.732.378.781.352 1.172.922 1.172 1.71v4.426a1.5 1.5 0 0 1-.533 1.044 1.59 1.59 0 0 1-1.066.414c-.532 0-.94-.243-1.225-.729C8.06 9.371 7.03 7.493 6.356 5.716l-.24-.654-3.544-.025c-.231 0-.36.013-.386.038-.027.025-.04.096-.04.213 0 .151.017.31.053.478l.56 1.409c1.491 3.638 3.112 6.505 4.862 8.6 1.75 2.096 3.468 3.144 5.155 3.144h2.665c.106 0 .186-.03.24-.088.053-.06.097-.172.133-.34l.053-.251.506-2.213c.142-.302.267-.503.373-.604a.975.975 0 0 1 .693-.277c.426 0 .861.243 1.305.73l2.265 2.716c.142.218.293.327.453.327h4.396c.533 0 .8-.126.8-.378a.466.466 0 0 0-.08-.251l-3.864-4.552c-.302-.352-.453-.73-.453-1.131 0-.403.142-.788.427-1.157.23-.336.679-.893 1.345-1.673a37.63 37.63 0 0 0 1.745-2.187c.498-.68.826-1.296.986-1.849l.08-.327a.371.371 0 0 1-.027-.163.574.574 0 0 0-.026-.189h-4.183c-.267.1-.48.252-.64.453l-.16.478c-.444 1.156-1.607 2.942-3.49 5.356a1.892 1.892 0 0 1-1.305.503Z"/></g></symbol><symbol id="social-Youtube"><g fill="currentColor"><path d="m17.85 10.793-5.236-3.491a.655.655 0 0 0-1.014.545v6.982a.654.654 0 0 0 1.014.546l5.237-3.491a.655.655 0 0 0 0-1.091Zm-4.94 2.814V9.07l3.403 2.27-3.404 2.268Zm12.48-8.563a2.4 2.4 0 0 0-1.452-1.637C20.218 1.978 14.251 2 14 2c-.25 0-6.218-.022-9.938 1.407A2.4 2.4 0 0 0 2.61 5.044C2.327 6.113 2 8.076 2 11.338c0 3.262.327 5.226.61 6.295a2.4 2.4 0 0 0 1.452 1.636c3.72 1.43 9.687 1.407 9.938 1.407h.076c.753 0 6.317-.043 9.862-1.407a2.4 2.4 0 0 0 1.451-1.636c.284-1.07.611-3.033.611-6.295s-.327-5.225-.61-6.294Zm-1.266 12.261a1.09 1.09 0 0 1-.655.742c-3.49 1.342-9.404 1.32-9.469 1.32-.066 0-5.978.022-9.47-1.32a1.09 1.09 0 0 1-.654-.742c-.261-1.003-.567-2.847-.567-5.967 0-3.12.306-4.963.567-5.967a1.09 1.09 0 0 1 .655-.742C8.02 3.287 13.935 3.31 14 3.31c.066 0 5.978-.022 9.47 1.32a1.092 1.092 0 0 1 .654.742c.262 1.004.567 2.847.567 5.967 0 3.12-.305 4.964-.567 5.967Z"/></g></symbol></svg>