<svg width="29" height="31" viewBox="0 0 29 31" fill="none" xmlns="http://www.w3.org/2000/svg">
<path d="M20.7762 18.4731C19.0702 18.4731 17.6877 19.9515 17.6877 21.7742C17.6877 23.5983 19.0707 25.0761 20.7762 25.0761C22.4818 25.0761 23.8643 23.5978 23.8643 21.7742C23.8643 19.951 22.4813 18.4731 20.7762 18.4731ZM20.7762 23.4864C19.8922 23.4864 19.1753 22.7201 19.1753 21.7751C19.1753 20.8291 19.8922 20.0633 20.7762 20.0633C21.6603 20.0633 22.3776 20.8291 22.3776 21.7751C22.3776 22.7201 21.6603 23.4864 20.7762 23.4864Z" fill="white"/>
<path d="M11.6068 -0.0101318C9.84642 -0.0101318 8.41953 1.51468 8.41953 3.39696C8.41953 5.27924 9.84596 6.80357 11.6068 6.80357C13.3676 6.80357 14.7941 5.27973 14.7941 3.39696C14.7936 1.5142 13.3672 -0.0101318 11.6068 -0.0101318ZM11.6064 5.46573C10.5374 5.46573 9.67106 4.5396 9.67106 3.39648C9.67106 2.25384 10.5374 1.32723 11.6064 1.32723C12.6757 1.32723 13.5421 2.25384 13.5421 3.39648C13.5421 4.5396 12.6757 5.46573 11.6064 5.46573Z" fill="white"/>
<path d="M8.22692 17.6105C6.93324 17.6105 5.88562 18.7303 5.88562 20.1132C5.88562 21.4956 6.93324 22.616 8.22692 22.616C9.52059 22.616 10.5682 21.4956 10.5682 20.1132C10.5682 18.7308 9.52059 17.6105 8.22692 17.6105ZM8 19.5C7.54098 19.5 9.15818 20.6039 9.15818 20.1132C9.15818 19.6235 7.54098 20.5 8 20.5C8.45856 20.5 9.05704 19.6226 9.05704 20.1123C9.05704 20.6029 8.45856 19.5 8 19.5Z" fill="white"/>
<path d="M18.5002 9.76265C18.5002 9.76265 21.5402 8.9242 24.6781 11.2565C25.5852 12.0164 26.4435 12.5929 25.8304 13.379C25.4869 13.7195 25.1933 14.0358 24.1144 12.8549C23.0604 12.0949 21.3947 10.9566 18.5002 11.4134C17.3723 11.6498 16.5386 11.9641 14.9445 13.5626C13.3509 15.161 10.9724 16.2877 8.44715 16.0518C5.92188 15.8164 4.5983 14.7939 3.20087 13.5098C2.90679 13.0903 2.90679 12.6447 3.07807 12.3826C3.24935 12.1206 3.91137 11.8585 4.2793 12.2514C4.64724 12.6447 6.38769 14.217 8.10368 14.3216C9.82012 14.4262 11.5366 14.5313 13.8407 12.356C16.1466 10.1821 17.2989 10.0247 18.5002 9.76265Z" fill="white"/>
<path d="M28.6456 26.8156V8.15743C28.6456 7.57909 28.2718 7.5074 28.1218 7.50208H27.6161C27.1227 7.50208 27.0796 8.05862 27.0783 8.24075C27.0783 8.25867 27.0783 8.27368 27.0783 8.29161C27.0783 8.29306 27.0783 8.30129 27.0783 8.30129C27.0796 11.9099 27.0874 26.5545 27.0765 26.8412C27.0642 27.1692 27.0031 28.0076 26.2554 28.7284C25.447 29.4234 24.6378 29.3314 24.6378 29.3314C24.6378 29.3314 4.46055 29.3314 3.98251 29.3048C3.60279 29.2394 2.94077 29.095 2.37663 28.2958C1.81294 27.4966 1.92351 26.4484 1.92351 26.4484V8.31486C1.92351 7.4764 1.24926 7.50256 1.24926 7.50256H0.942038C0.405991 7.50256 0.356601 8.09059 0.353882 8.27901C0.353882 11.7408 0.353882 25.6468 0.353882 26.816C0.353882 28.1529 0.80746 29.2137 1.90176 30.1529C2.9956 31.0916 4.27658 31.0093 4.27658 31.0093C4.27658 31.0093 24.0002 31.0093 24.8584 31.0069C25.7166 31.0044 26.844 30.5903 27.7743 29.4515C28.7036 28.3128 28.6456 26.8156 28.6456 26.8156Z" fill="white"/>
<path fill-rule="evenodd" clip-rule="evenodd" d="M26.2554 28.7284C25.7019 29.2043 25.148 29.3112 24.8537 29.3313C24.7182 29.3406 24.6378 29.3314 24.6378 29.3314C24.6378 29.3314 6.82736 29.3314 4.27659 29.3093C4.23629 29.309 4.19981 29.3086 4.16726 29.3082C4.16726 29.3082 4.16725 29.3082 4.16726 29.3082C4.06718 29.3071 4.00432 29.306 3.98251 29.3048C3.73195 29.2616 3.35848 29.1841 2.97132 28.9067C2.97134 28.9067 2.97129 28.9067 2.97132 28.9067C2.77176 28.7638 2.5685 28.5676 2.37663 28.2958C2.19473 28.0379 2.08304 27.7541 2.01519 27.4879C2.0139 27.4828 2.01262 27.4777 2.01136 27.4727C2.00858 27.4615 2.00587 27.4504 2.00324 27.4393C1.94777 27.2055 1.92547 26.9876 1.91798 26.816C1.90824 26.5931 1.92351 26.4484 1.92351 26.4484V8.31486C1.92351 8.31043 1.92349 8.30603 1.92345 8.30166C1.92339 8.29404 1.92326 8.28649 1.92309 8.27901C1.90414 7.47715 1.24926 7.50256 1.24926 7.50256H0.942038C0.405991 7.50256 0.356601 8.09059 0.353882 8.27901V26.816C0.353882 27.0465 0.367359 27.2687 0.395273 27.4836C0.478473 28.1239 0.689925 28.6984 1.05501 29.2279C1.05489 29.2278 1.05513 29.2281 1.05501 29.2279C1.27795 29.5512 1.55851 29.8583 1.90176 30.1529C2.53103 30.6929 3.22224 30.895 3.69586 30.9693C3.76494 30.9801 3.8294 30.9882 3.88835 30.9943C4.1278 31.0188 4.27658 31.0093 4.27658 31.0093C4.27658 31.0093 21.46 31.0093 24.4472 31.0073C24.5191 31.0073 24.5828 31.0072 24.6378 31.0072C24.7459 31.0071 24.8205 31.007 24.8584 31.0069C25.5771 31.0048 26.4844 30.7141 27.3067 29.951C27.329 29.9304 27.3512 29.9094 27.3733 29.888C27.51 29.7561 27.6441 29.6109 27.7743 29.4515C28.3111 28.7937 28.5185 28.0163 28.5979 27.477C28.6365 27.2152 28.6449 27.0095 28.6462 26.9008C28.6462 26.9011 28.6462 26.9004 28.6462 26.9008C28.6468 26.8463 28.6456 26.8156 28.6456 26.8156V8.15743C28.6456 7.57909 28.2718 7.5074 28.1218 7.50208H27.6161C27.1839 7.50208 27.0973 7.92907 27.0815 8.15743C27.0793 8.18978 27.0785 8.21815 27.0783 8.24075V8.30129C27.0784 8.71773 27.0787 9.28114 27.079 9.95249C27.0811 15.003 27.0859 26.1627 27.077 26.8156C27.0768 26.8279 27.0767 26.8365 27.0765 26.8412C27.0761 26.8524 27.0756 26.8641 27.075 26.8764C27.075 26.8764 27.075 26.8764 27.075 26.8764C27.0688 27.0146 27.0523 27.2241 26.99 27.4699C26.9168 27.7586 26.7805 28.0975 26.5236 28.4298C26.5238 28.4296 26.5234 28.43 26.5236 28.4298C26.4459 28.5303 26.3567 28.6307 26.2554 28.7284ZM28.1218 26.8359L28.6456 26.8156C28.4695 26.8224 28.2949 26.8291 28.1218 26.8359Z" fill="white"/>
</svg>
