<svg width="32" height="33" viewBox="0 0 32 33" fill="none" xmlns="http://www.w3.org/2000/svg">
<path d="M22.2915 11.3299C22.2915 11.9292 21.8047 12.415 21.2042 12.415C20.6037 12.415 20.1169 11.9292 20.1169 11.3299C20.1169 10.7306 20.6037 10.2448 21.2042 10.2448C21.8047 10.2448 22.2915 10.7306 22.2915 11.3299Z" fill="white"/>
<path d="M11.4184 11.3299C11.4184 11.9292 10.9316 12.415 10.3311 12.415C9.73062 12.415 9.24382 11.9292 9.24382 11.3299C9.24382 10.7306 9.73062 10.2448 10.3311 10.2448C10.9316 10.2448 11.4184 10.7306 11.4184 11.3299Z" fill="white"/>
<path d="M11.4184 24.3512C11.4184 24.9505 10.9316 25.4363 10.3311 25.4363C9.73062 25.4363 9.24382 24.9505 9.24382 24.3512C9.24382 23.7519 9.73062 23.2661 10.3311 23.2661C10.9316 23.2661 11.4184 23.7519 11.4184 24.3512Z" fill="white"/>
<path d="M16.855 26.5215C16.855 27.1208 16.3682 27.6066 15.7677 27.6066C15.1672 27.6066 14.6804 27.1208 14.6804 26.5215C14.6804 25.9222 15.1672 25.4364 15.7677 25.4364C16.3682 25.4364 16.855 25.9222 16.855 26.5215Z" fill="white"/>
<path d="M8.15654 17.7748C8.15654 18.3741 7.66974 18.8599 7.06924 18.8599C6.46874 18.8599 5.98193 18.3741 5.98193 17.7748C5.98193 17.1755 6.46874 16.6897 7.06924 16.6897C7.66974 16.6897 8.15654 17.1755 8.15654 17.7748Z" fill="white"/>
<path d="M25.5534 17.7748C25.5534 18.3741 25.0666 18.8599 24.4661 18.8599C23.8656 18.8599 23.3788 18.3741 23.3788 17.7748C23.3788 17.1755 23.8656 16.6897 24.4661 16.6897C25.0666 16.6897 25.5534 17.1755 25.5534 17.7748Z" fill="white"/>
<path d="M22.2915 24.3512C22.2915 24.9505 21.8047 25.4363 21.2042 25.4363C20.6037 25.4363 20.1169 24.9505 20.1169 24.3512C20.1169 23.7519 20.6037 23.2661 21.2042 23.2661C21.8047 23.2661 22.2915 23.7519 22.2915 24.3512Z" fill="white"/>
<path fill-rule="evenodd" clip-rule="evenodd" d="M20.9215 29.0581C21.3298 28.8622 21.8226 28.9298 22.1385 29.2542L23.9644 31.1292C24.2319 31.4039 24.6734 31.4039 24.941 31.1292V31.1292C25.1987 30.8645 25.1987 30.4427 24.941 30.1781L23.5843 28.7849C23.1584 28.3475 23.2228 27.6356 23.682 27.2333C26.3238 24.9195 28 21.4688 28 17.6145C28 10.6477 22.5235 5 15.7678 5C9.01218 5 3.53564 10.6477 3.53564 17.6145C3.53564 21.4288 5.17729 24.8477 7.77166 27.1608C8.22438 27.5644 8.28489 28.2708 7.86173 28.7054L6.42757 30.1781C6.16985 30.4427 6.16984 30.8645 6.42756 31.1291V31.1291C6.69513 31.4039 7.13664 31.4039 7.40421 31.1292L9.28384 29.199C9.60245 28.8718 10.1004 28.8061 10.5102 29.0076C12.103 29.7907 13.8858 30.229 15.7678 30.229C17.609 30.229 19.3553 29.8095 20.9215 29.0581ZM15.7678 28.8274C21.7728 28.8274 26.6409 23.8072 26.6409 17.6145C26.6409 11.4218 21.7728 6.40161 15.7678 6.40161C9.7628 6.40161 4.89478 11.4218 4.89478 17.6145C4.89478 23.8072 9.7628 28.8274 15.7678 28.8274ZM15.0083 17.298V13.5001V9.94092C15.0083 9.50942 15.3581 9.15963 15.7895 9.15963V9.15963C16.221 9.15963 16.5708 9.50942 16.5708 9.94092V13.5001V17.298V17.8406V18.1226C16.5708 18.5661 16.2113 18.9257 15.7677 18.9257V18.9257V18.9257C15.3483 18.9257 15.0083 18.5857 15.0083 18.1663V17.8406V17.298Z" fill="white"/>
<path fill-rule="evenodd" clip-rule="evenodd" d="M9.28384 29.199C9.41531 29.064 9.57731 28.9735 9.75105 28.9279C9.99837 28.8631 10.2695 28.8892 10.5102 29.0076C10.9595 29.2285 11.4239 29.4219 11.9014 29.5859C13.1167 30.0031 14.4167 30.229 15.7678 30.229C17.0803 30.229 18.3446 30.0158 19.5298 29.6212C20.0072 29.4622 20.4718 29.2738 20.9215 29.0581C21.1352 28.9555 21.3721 28.9252 21.5946 28.9661C21.7972 29.0033 21.9879 29.0996 22.1385 29.2542L23.9644 31.1292C24.2319 31.4039 24.6734 31.4039 24.941 31.1292C25.1987 30.8645 25.1987 30.4427 24.941 30.1781L23.5843 28.7849C23.4033 28.5991 23.3109 28.3637 23.2996 28.1235C23.2892 27.9026 23.3476 27.6777 23.4689 27.4836C23.5261 27.3921 23.5974 27.3075 23.682 27.2333C24.0504 26.9106 24.4 26.5659 24.7289 26.201C26.7587 23.9492 28 20.9314 28 17.6145C28 10.6477 22.5235 5 15.7678 5C9.01218 5 3.53564 10.6477 3.53564 17.6145C3.53564 20.889 4.74548 23.872 6.72931 26.1142C7.05638 26.4839 7.40448 26.8334 7.77166 27.1608C7.89106 27.2673 7.98317 27.3948 8.04633 27.5328C8.1266 27.7082 8.1601 27.9006 8.14338 28.0884C8.12337 28.3131 8.03146 28.5311 7.86173 28.7054L6.42757 30.1781C6.16985 30.4427 6.16984 30.8645 6.42756 31.1291C6.69513 31.4039 7.13664 31.4039 7.40421 31.1292L9.28384 29.199ZM7.90131 25.3552C8.1522 25.6263 8.41612 25.8844 8.69205 26.1285C9.42491 26.7768 10.2424 27.3263 11.1252 27.7568C11.4573 27.9187 11.7986 28.0638 12.1481 28.191C13.2804 28.6032 14.4987 28.8274 15.7678 28.8274C17.0029 28.8274 18.1899 28.615 19.2964 28.2237C19.6454 28.1003 19.9865 27.9591 20.3184 27.8011C21.207 27.3782 22.0309 26.8353 22.7705 26.1926C23.0471 25.9522 23.3119 25.6979 23.5639 25.4306C25.4682 23.411 26.6409 20.654 26.6409 17.6145C26.6409 12.8394 23.7465 8.76153 19.6684 7.14471C18.464 6.66723 17.1564 6.40439 15.7895 6.40163C15.7823 6.40162 15.7751 6.40161 15.7678 6.40161C14.4161 6.40161 13.122 6.65597 11.9281 7.12082C7.81791 8.72107 4.89478 12.8157 4.89478 17.6145C4.89478 20.6163 6.03861 23.3426 7.90131 25.3552ZM16.5708 9.94092C16.5708 9.50942 16.221 9.15963 15.7895 9.15963C15.7823 9.15963 15.775 9.15973 15.7678 9.15993C15.3464 9.17143 15.0083 9.51669 15.0083 9.94092V18.1663C15.0083 18.5857 15.3483 18.9257 15.7677 18.9257C16.1966 18.9257 16.547 18.5895 16.5697 18.1663C16.5704 18.1518 16.5708 18.1372 16.5708 18.1226V9.94092Z" fill="white"/>
<path d="M15 6V2H16.5V6H15Z" fill="white"/>
<path d="M8 2.75C8 2.33579 8.33579 2 8.75 2H22.75C23.1642 2 23.5 2.33579 23.5 2.75V2.75C23.5 3.16421 23.1642 3.5 22.75 3.5H8.75C8.33579 3.5 8 3.16421 8 2.75V2.75Z" fill="white"/>
</svg>
